<?xml version="1.0" encoding="UTF-8" standalone="no"?>
<svg
   xmlns:dc="http://purl.org/dc/elements/1.1/"
   xmlns:cc="http://creativecommons.org/ns#"
   xmlns:rdf="http://www.w3.org/1999/02/22-rdf-syntax-ns#"
   xmlns:svg="http://www.w3.org/2000/svg"
   xmlns="http://www.w3.org/2000/svg"
   xmlns:sodipodi="http://sodipodi.sourceforge.net/DTD/sodipodi-0.dtd"
   xmlns:inkscape="http://www.inkscape.org/namespaces/inkscape"
   version="1.1"
   id="Layer_1"
   x="0px"
   y="0px"
   viewBox="0 0 256 256"
   xml:space="preserve"
   sodipodi:docname="logo.svg"
   width="256"
   height="256"
   inkscape:version="0.92.2 (5c3e80d, 2017-08-06)"><metadata
     id="metadata4606"><rdf:RDF><cc:Work
         rdf:about=""><dc:format>image/svg+xml</dc:format><dc:type
           rdf:resource="http://purl.org/dc/dcmitype/StillImage" /><dc:title></dc:title></cc:Work></rdf:RDF></metadata><defs
     id="defs4604" /><sodipodi:namedview
     pagecolor="#ffffff"
     bordercolor="#666666"
     borderopacity="1"
     objecttolerance="10"
     gridtolerance="10"
     guidetolerance="10"
     inkscape:pageopacity="0"
     inkscape:pageshadow="2"
     inkscape:window-width="1853"
     inkscape:window-height="1025"
     id="namedview4602"
     showgrid="false"
     fit-margin-top="0"
     fit-margin-left="0"
     fit-margin-right="0"
     fit-margin-bottom="0"
     inkscape:zoom="1"
     inkscape:cx="46.518695"
     inkscape:cy="51.517935"
     inkscape:window-x="67"
     inkscape:window-y="27"
     inkscape:window-maximized="1"
     inkscape:current-layer="Layer_1" /><style
     type="text/css"
     id="style4575">
	.st0{fill:#FF0000;}
	.st1{fill:#FFFFFF;}
	.st2{fill:#282828;}
</style><g
     id="g73"
     transform="matrix(2.1157025,0,0,2.1157025,-1.359802e-7,-323.70248)"><path
       class="st0"
       d="m 118.50774,184.3 c -1.39538,-5.2 -5.48186,-9.3 -10.6647,-10.7 C 98.374382,171 60.499741,171 60.499741,171 c 0,0 -37.874632,0 -47.34329,2.5 -5.0831741,1.4 -9.2693179,5.6 -10.6646989,10.8 C 0,193.8 0,213.5 0,213.5 c 0,0 0,19.8 2.4917521,29.2 1.395381,5.2 5.4818547,9.3 10.6646989,10.7 9.568328,2.6 47.34329,2.6 47.34329,2.6 0,0 37.874641,0 47.343299,-2.5 5.18284,-1.4 9.26932,-5.5 10.6647,-10.7 2.49175,-9.5 2.49175,-29.2 2.49175,-29.2 0,0 0.0997,-19.8 -2.49175,-29.3 z"
       id="path4577"
       inkscape:connector-curvature="0"
       style="fill:#008000;stroke-width:0.99834907" /><polygon
       transform="matrix(0.99670084,0,0,1,-20.760318,171)"
       class="st1"
       points="48.6,24.3 48.6,60.7 80.2,42.5 "
       id="polygon4579"
       style="fill:#ffffff" /><g
       transform="translate(0,171)"
       id="g4599" /><text
       transform="scale(0.99834904,1.0016537)"
       id="text4621"
       y="230.13765"
       x="62.790817"
       style="font-style:normal;font-variant:normal;font-weight:normal;font-stretch:normal;font-size:39.93396378px;line-height:1.25;font-family:consolas;-inkscape-font-specification:consolas;letter-spacing:0px;word-spacing:0px;fill:#ffffff;fill-opacity:1;stroke:none;stroke-width:0.99834907"
       xml:space="preserve"><tspan
         style="font-size:53.24528122px;fill:#ffffff;stroke-width:0.99834907"
         y="230.13765"
         x="62.790817"
         id="tspan4619"
         sodipodi:role="line">3</tspan></text>
</g></svg>